<?xml version="1.0" encoding="UTF-8" standalone="no"?>
<svg
   xmlns:dc="http://purl.org/dc/elements/1.1/"
   xmlns:cc="http://creativecommons.org/ns#"
   xmlns:rdf="http://www.w3.org/1999/02/22-rdf-syntax-ns#"
   xmlns:svg="http://www.w3.org/2000/svg"
   xmlns="http://www.w3.org/2000/svg"
   viewBox="0 0 2237.3333 277.53333"
   height="277.53333"
   width="2237.3333"
   xml:space="preserve"
   id="svg2"
   version="1.1"><metadata
     id="metadata8"><rdf:RDF><cc:Work
         rdf:about=""><dc:format>image/svg+xml</dc:format><dc:type
           rdf:resource="http://purl.org/dc/dcmitype/StillImage" /></cc:Work></rdf:RDF></metadata><defs
     id="defs6" /><g
     transform="matrix(1.3333333,0,0,-1.3333333,0,277.53333)"
     id="g10"><g
       transform="scale(0.1)"
       id="g12"><path
         id="path14"
         style="fill:#100f0d;fill-opacity:1;fill-rule:nonzero;stroke:none"
         d="m 280,1519.74 v -250 h 46.547 c 77.129,0 129.113,9.72 155.93,29.17 26.808,19.45 40.226,47.75 40.226,84.89 0,41.99 -15.734,75.15 -47.211,99.46 -31.484,24.31 -83.781,36.48 -156.922,36.48 z m 0,360 v -200 h 39.504 c 44.035,0 76.746,9.24 98.117,27.74 21.371,18.49 32.059,43.65 32.059,75.48 0,29.68 -10.153,53.23 -30.446,70.65 -20.293,17.42 -51.164,26.13 -92.601,26.13 z m -180,-780 v 960 h 150.941 c 87.551,0 151.594,-5.66 192.102,-16.97 57.504,-15.23 103.246,-43.51 137.227,-84.84 33.972,-41.34 50.964,-90.06 50.964,-146.19 0,-36.54 -7.726,-69.73 -23.168,-99.52 -15.449,-29.81 -40.578,-57.76 -75.378,-83.86 58.292,-27.42 100.929,-61.68 127.914,-102.79 26.972,-41.12 40.461,-89.73 40.461,-145.86 0,-53.95 -13.938,-103.11 -41.821,-147.49 -27.875,-44.38 -63.804,-77.56 -107.793,-99.53 -43.988,-21.98 -104.754,-32.95 -182.273,-32.95 H 100" /><path
         id="path16"
         style="fill:#100f0d;fill-opacity:1;fill-rule:nonzero;stroke:none"
         d="m 1320,2059.74 h 520 v -180 h -340 v -170 h 340 v -180 h -340 v -250 h 340 v -180 h -520 v 960" /><path
         id="path18"
         style="fill:#100f0d;fill-opacity:1;fill-rule:nonzero;stroke:none"
         d="m 2403.94,2059.74 h 191.88 l 175.16,-345.34 174.34,345.34 h 189.47 L 2860,1515.45 v -415.71 h -180 v 415.71 l -276.06,544.29" /><path
         id="path20"
         style="fill:#100f0d;fill-opacity:1;fill-rule:nonzero;stroke:none"
         d="m 4185.47,1902.66 c -88.53,0 -162.94,-30.78 -223.24,-92.32 -60.31,-61.55 -90.46,-139.78 -90.46,-234.7 0,-105.76 37.96,-189.43 113.9,-250.96 59,-48.12 126.69,-72.17 203.05,-72.17 86.34,0 159.87,31.2 220.63,93.62 60.74,62.42 91.12,139.35 91.12,230.8 0,91.03 -30.6,168.07 -91.77,231.14 -61.18,63.06 -135.59,94.59 -223.23,94.59 z m 1.95,178.14 c 135.31,0 251.66,-48.98 349.03,-146.93 97.37,-97.96 146.06,-217.37 146.06,-358.23 0,-139.57 -48.04,-257.69 -144.11,-354.34 -96.07,-96.66 -212.63,-144.98 -349.68,-144.98 -143.56,0 -262.84,49.62 -357.82,148.89 -94.98,99.24 -142.48,217.15 -142.48,353.68 0,91.44 22.12,175.54 66.36,252.25 44.24,76.72 105.07,137.51 182.49,182.38 77.41,44.86 160.79,67.28 250.15,67.28" /><path
         id="path22"
         style="fill:#100f0d;fill-opacity:1;fill-rule:nonzero;stroke:none"
         d="m 5300,2059.74 h 185.38 L 5890,1428.01 v 631.73 h 180 v -960 H 5884.14 L 5480,1729.51 v -629.77 h -180 v 960" /><path
         id="path24"
         style="fill:#100f0d;fill-opacity:1;fill-rule:nonzero;stroke:none"
         d="m 6920,1879.74 v -600 h 84.05 c 82.76,0 142.78,9.48 180.06,28.48 37.28,18.98 67.78,50.92 91.49,95.78 23.7,44.88 35.56,100.11 35.56,165.7 0,100.98 -28.23,179.29 -84.7,234.96 -50.86,50.05 -132.54,75.08 -245.04,75.08 z m -180,180 h 216.48 c 139.54,0 243.21,-17.29 311.03,-51.88 67.81,-34.59 123.67,-90.83 167.58,-168.7 43.9,-77.89 65.86,-168.82 65.86,-272.8 0,-73.97 -12.29,-141.95 -36.84,-203.94 -24.56,-62 -58.48,-113.46 -101.73,-154.34 -43.25,-40.91 -90.09,-69.18 -140.52,-84.85 -50.42,-15.66 -137.79,-23.49 -262.11,-23.49 H 6740 v 960" /><path
         id="path26"
         style="fill:#100f0d;fill-opacity:1;fill-rule:nonzero;stroke:none"
         d="m 8210,1559.74 v -370 h 119.6 c 70.53,0 122.23,6.89 155.09,20.66 32.85,13.78 59.25,35.32 79.19,64.62 19.92,29.3 29.89,61.01 29.89,95.12 0,42.86 -14.01,80.25 -42.03,112.18 -28.03,31.92 -66.55,53.8 -115.59,65.6 -32.87,7.88 -90.07,11.82 -171.59,11.82 z m 0,410 v -310 h 55.4 c 67.28,0 116.74,6.25 148.41,18.75 31.65,12.52 56.72,32.25 75.19,59.24 18.47,26.99 27.71,56.93 27.71,89.84 0,44.32 -15.51,79.09 -46.5,104.32 -31,25.24 -80.37,37.85 -148.09,37.85 z m -90,90 h 189.26 c 76.13,0 134.65,-9.04 175.55,-27.09 40.89,-18.06 73.2,-45.79 96.92,-83.2 23.71,-37.43 35.56,-78.97 35.56,-124.65 0,-42.65 -10.39,-81.48 -31.17,-116.5 -20.78,-35.02 -51.32,-63.41 -91.57,-85.16 49.88,-16.97 88.26,-36.88 115.17,-59.72 26.89,-22.84 47.81,-50.47 62.78,-82.88 14.97,-32.42 22.45,-67.55 22.45,-105.4 0,-77.01 -28.17,-142.17 -84.51,-195.45 -56.35,-53.31 -131.94,-79.95 -226.78,-79.95 H 8120 v 960" /><path
         id="path28"
         style="fill:#100f0d;fill-opacity:1;fill-rule:nonzero;stroke:none"
         d="m 10750,2049.74 h 90 v -860 h 370 v -90 h -460 v 950" /><path
         id="path30"
         style="fill:#100f0d;fill-opacity:1;fill-rule:nonzero;stroke:none"
         d="m 13260,1099.74 v 960 h 23.5 l 636.5,-736.11 v 736.11 h 90 v -960 h -11.2 l -638.8,726.93 v -726.93 h -100" /><path
         id="path32"
         style="fill:#100f0d;fill-opacity:1;fill-rule:nonzero;stroke:none"
         d="m 15586.5,1879.25 -75.5,-57.87 c -41.6,54.18 -91.5,95.25 -149.8,123.21 -58.3,27.96 -122.4,41.93 -192.1,41.93 -76.3,0 -147,-18.31 -212,-54.94 -65,-36.63 -115.4,-85.82 -151.1,-147.58 -35.8,-61.76 -53.7,-131.23 -53.7,-208.37 0,-116.61 40,-213.91 120,-291.93 79.9,-78.02 180.8,-117.02 302.6,-117.02 133.9,0 246,52.43 336.1,157.34 l 75.5,-57.22 c -47.7,-60.69 -107.2,-107.6 -178.5,-140.75 -71.3,-33.17 -150.9,-49.74 -238.9,-49.74 -167.4,0 -299.3,55.68 -396,167.09 -81,94.04 -121.6,207.61 -121.6,340.67 0,140 49.1,257.79 147.3,353.37 98.2,95.57 221.2,143.36 369,143.36 89.3,0 169.9,-17.67 241.8,-52.99 72,-35.33 130.9,-84.85 176.9,-148.56" /><g
         transform="scale(1.02945)"
         id="g34"><path
           id="path36"
           style="fill:#100f0d;fill-opacity:1;fill-rule:nonzero;stroke:none"
           d="m 15765.7,2000.82 h 534.3 v -87.43 h -446.8 v -301.13 h 437.1 v -87.42 h -437.1 v -369.13 h 437.1 v -87.43 h -524.6 v 932.54" /></g><path
         id="path38"
         style="fill:#100f0d;fill-opacity:1;fill-rule:nonzero;stroke:none"
         d="m 10107.3,1089.74 -394.87,784.3 -385.78,-784.3 h -111.01 l 496.79,991.75 494.97,-991.75 h -100.1" /><path
         id="path40"
         style="fill:#100f0d;fill-opacity:1;fill-rule:nonzero;stroke:none"
         d="m 12593,1089.74 -394.9,784.3 -385.8,-784.3 h -111 l 496.8,991.75 495,-991.75 H 12593" /><g
         transform="scale(1.02883)"
         id="g42"><path
           id="path44"
           style="fill:none;stroke:#100f0d;stroke-width:38.87900162;stroke-linecap:butt;stroke-linejoin:miter;stroke-miterlimit:10;stroke-dasharray:none;stroke-opacity:1"
           d="m 0,602.369 16300,-0.007" /></g><path
         id="path46"
         style="fill:none;stroke:#100f0d;stroke-width:40;stroke-linecap:butt;stroke-linejoin:miter;stroke-miterlimit:10;stroke-dasharray:none;stroke-opacity:1"
         d="M 7776.05,575.262 7455.47,20 h 641.17 z" /></g></g></svg>